# xmcd CD database file
# Copyright (C) 1993-1998 Ti Kan
# 
# Track frame offsets:
#     182
#     11722
#     23937
#     35937
#     44852
#     55770
#     70280
#     82080
#     94640
#     104887
#     117190
#     129415
#     140537
#     153615
#     166212
#     175462
#     187625
#     200250
# 
# Disc length: 2842 seconds
# 
# Revision: 1
# Processed by: cddbd v1.4b41PL1 Copyright (c) Steve Scherf et al.
# Submitted via: DiscPlay 4.0.4
# 
DISCID=050b1812
DTITLE=Jimmy Reed - The Classic Recordings (Volume 3)
DYEAR=1900
DGENRE=
TTITLE0=When You Left Me
TTITLE1=Do The Thing
TTITLE2=Where Can You Be
TTITLE3=I'm A Love You
TTITLE4=Good Lover
TTITLE5=I Was So Wrong
TTITLE6=I'm Gonna Get My Baby
TTITLE7=Can't Stand To See You Go
TTITLE8=I Ain't Got You
TTITLE9=Wear Something Green
TTITLE10=Pretty Things
TTITLE11=Signals Of Love
TTITLE12=I'm Going Upside Your Head
TTITLE13=Caress Me Baby
TTITLE14=Shoot Me Baby
TTITLE15=When You're Doing Alright
TTITLE16=I Found My Baby
TTITLE17=I'm The Man Down There
EXTD=
EXTT0=
EXTT1=
EXTT2=
EXTT3=
EXTT4=
EXTT5=
EXTT6=
EXTT7=
EXTT8=
EXTT9=
EXTT10=
EXTT11=
EXTT12=
EXTT13=
EXTT14=
EXTT15=
EXTT16=
EXTT17=
PLAYORDER=
